<svg width="29" height="28" viewBox="0 0 29 28" fill="none" xmlns="http://www.w3.org/2000/svg">
<g clip-path="url(#clip0_2124_88472)">
<path d="M0 24.2383C0 26.043 0.867188 26.9336 2.67188 26.9336H18.6797C20.4727 26.9336 21.3516 26.043 21.3516 24.2383V3.70703C21.3516 1.90234 20.4727 1 18.6797 1H16.3828C14.5898 1 13.7109 1.90234 13.7109 3.70703V8.35938C13.4531 8.30078 13.1484 8.25391 12.8203 8.25391H7.71094C7.37109 8.25391 7.07812 8.30078 6.80859 8.35938V6.95312C6.80859 5.14844 5.94141 4.24609 4.14844 4.24609H2.67188C0.867188 4.24609 0 5.14844 0 6.95312V24.2383ZM1.76953 24.0977V7.08203C1.76953 6.39062 2.13281 6.01562 2.85938 6.01562H3.96094C4.6875 6.01562 5.03906 6.39062 5.03906 7.08203V25.1641H2.85938C2.13281 25.1641 1.76953 24.7891 1.76953 24.0977ZM6.80859 25.1641V11.0898C6.80859 10.3984 7.17188 10.0234 7.89844 10.0234H12.6328C13.3594 10.0234 13.7109 10.3984 13.7109 11.0898V25.1641H6.80859ZM15.4805 25.1641V3.83594C15.4805 3.14453 15.8438 2.76953 16.5703 2.76953H18.4922C19.2305 2.76953 19.582 3.14453 19.582 3.83594V24.0977C19.582 24.7891 19.2305 25.1641 18.4922 25.1641H15.4805ZM7.875 12.2969C7.875 12.707 8.17969 13.0234 8.61328 13.0234H11.9414C12.3516 13.0234 12.668 12.707 12.668 12.2969C12.668 11.8984 12.3516 11.582 11.9414 11.582H8.61328C8.17969 11.582 7.875 11.8984 7.875 12.2969ZM7.875 22.8906C7.875 23.3008 8.17969 23.6172 8.61328 23.6172H11.9414C12.3516 23.6172 12.668 23.3008 12.668 22.8906C12.668 22.4922 12.3516 22.1758 11.9414 22.1758H8.61328C8.17969 22.1758 7.875 22.4922 7.875 22.8906ZM22.4062 24.5664C22.6289 26.3477 23.5781 27.1797 25.3711 26.9336L26.5898 26.7695C28.3828 26.5234 29.1211 25.5742 28.9219 23.793L26.9062 6.27344C26.6953 4.49219 25.7344 3.64844 23.9414 3.90625L22.7227 4.07031C20.918 4.32812 20.168 5.26562 20.3789 7.04688L22.4062 24.5664ZM24.1406 24.2148L22.1602 6.97656C22.0781 6.28516 22.3945 5.89844 23.1211 5.79297L23.9648 5.6875C24.6914 5.58203 25.0898 5.93359 25.1719 6.61328L27.1523 23.8516C27.2344 24.5547 26.918 24.9297 26.2031 25.0352L25.3359 25.1523C24.6211 25.2578 24.2227 24.918 24.1406 24.2148Z" fill="black" fill-opacity="0.85"/>
</g>
<defs>
<clipPath id="clip0_2124_88472">
<rect width="28.9535" height="26.7539" fill="white" transform="translate(0 1)"/>
</clipPath>
</defs>
</svg>
