<svg width="28" height="28" viewBox="0 0 28 28" fill="none" xmlns="http://www.w3.org/2000/svg">
<g clip-path="url(#clip0_2124_88345)">
<path d="M4.67969 24.4453H24.2852C26.3828 24.4453 27.6133 23.2266 27.6133 20.8125V8.77734C27.6133 6.36328 26.3711 5.14453 23.9336 5.14453H12.6836C11.8867 5.14453 11.4062 4.95703 10.8203 4.45312L10.1055 3.86719C9.33203 3.21094 8.73438 3 7.57422 3H4.23438C2.18359 3 1 4.17188 1 6.52734V20.8125C1 23.2383 2.23047 24.4453 4.67969 24.4453ZM4.70312 22.5586C3.53125 22.5586 2.88672 21.9375 2.88672 20.7188V6.63281C2.88672 5.47266 3.49609 4.875 4.62109 4.875H7.09375C7.86719 4.875 8.33594 5.07422 8.93359 5.57812L9.64844 6.17578C10.4102 6.80859 11.0312 7.03125 12.1914 7.03125H23.8984C25.0586 7.03125 25.7266 7.66406 25.7266 8.88281V20.7305C25.7266 21.9375 25.0586 22.5586 23.8984 22.5586H4.70312ZM2.14844 11.3203H26.4531V9.55078H2.14844V11.3203Z" fill="black" fill-opacity="0.85"/>
</g>
<defs>
<clipPath id="clip0_2124_88345">
<rect width="26.6133" height="21.5977" fill="white" transform="translate(1 3)"/>
</clipPath>
</defs>
</svg>
