<svg width="29" height="29" viewBox="0 0 29 29" fill="none" xmlns="http://www.w3.org/2000/svg">
<g clip-path="url(#clip0_2124_45739)">
<path d="M6.88867 24.7282H21.6192C23.5645 24.7282 24.4903 24.1423 24.4903 22.8532C24.4903 19.7829 20.6114 15.3415 14.2598 15.3415C7.89649 15.3415 4.01758 19.7829 4.01758 22.8532C4.01758 24.1423 4.94336 24.7282 6.88867 24.7282ZM6.33789 22.9587C6.0332 22.9587 5.9043 22.8767 5.9043 22.6306C5.9043 20.697 8.88086 17.111 14.2598 17.111C19.627 17.111 22.6035 20.697 22.6035 22.6306C22.6035 22.8767 22.4864 22.9587 22.1817 22.9587H6.33789ZM14.2598 13.8767C17.0488 13.8767 19.3223 11.4041 19.3223 8.38062C19.3223 5.38062 17.0606 3.02515 14.2598 3.02515C11.4824 3.02515 9.19727 5.42749 9.19727 8.40406C9.19727 11.4158 11.4707 13.8767 14.2598 13.8767ZM14.2598 12.1072C12.5488 12.1072 11.084 10.4783 11.084 8.40406C11.084 6.36499 12.5254 4.79468 14.2598 4.79468C16.0059 4.79468 17.4356 6.32984 17.4356 8.38062C17.4356 10.4548 15.9824 12.1072 14.2598 12.1072Z" fill="black" fill-opacity="0.85"/>
</g>
<defs>
<clipPath id="clip0_2124_45739">
<rect width="20.4727" height="21.7148" fill="white" transform="translate(4.01758 3.02515)"/>
</clipPath>
</defs>
</svg>
